#!OML:ASF X:\für Bonn\!DataBase\2005_08_12_Daniel\c3d\Daniel.ASF
:FULLY-SPECIFIED
:DEGREES
31
root 4.13344 17.0974 1.88063 -165.427 -81.9824 161.905
lowerback 30.1801 1.7043 -0.37279
upperback 9.16424 0.598368 -4.38468
thorax -6.18143 -0.11148 -4.85185
lowerneck 1.44478 0.762145 0.26594
upperneck 6.60728 0.928649 -0.0267495
head 1.8062 0.43132 -0.0433086
rclavicle 3.18055e-014 2.3059e-014
rhumerus -17.4922 14.1066 -100.408
rradius 46.7624
rwrist 28.08
rhand -32.83 11.2689
rfingers 7.12502
rthumb -6.05013 341.375
lclavicle 3.18055e-014 2.3059e-014
lhumerus -200.142 196.287 -80.0773
lradius 51.0173
lwrist 16.9909
lhand -20.0828 9.09222
lfingers 7.12502
lthumb 6.25985 38.9797
rfemur -14.4991 -1.53265 5.34924
rtibia 37.0002
rfoot 344.224 -14.3467
rtoes -12.6793
lfemur -16.378 -12.5454 -20.2937
ltibia 39.2859
lfoot -23.7651 5.98591
ltoes 2.71228
32
root 4.14872 17.1036 1.90101 -165.556 -81.8691 162.107
lowerback 30.4313 1.77428 -0.421728
upperback 9.25881 0.638834 -4.44777
thorax -6.18724 -0.0997106 -4.9144
lowerneck 1.57385 0.758923 0.277237
upperneck 6.82987 0.9092 0.122292
head 1.85472 0.421975 0.000840574
rclavicle -2.66371e-014 4.6118e-014
rhumerus -16.964 14.082 -100.412
rradius 46.4595
rwrist 28.8858
rhand -33.5219 11.4761
rfingers 7.12502
rthumb -6.71809 341.603
lclavicle -2.66371e-014 4.6118e-014
lhumerus -199.874 196.555 -80.0688
lradius 50.8577
lwrist 17.1534
lhand -20.3418 9.33084
lfingers 7.12502
lthumb 6.00987 39.2256
rfemur -14.9135 -1.54295 5.20585
rtibia 37.203
rfoot 344.945 -13.6784
rtoes -12.6968
lfemur -16.437 -12.6934 -20.3544
ltibia 39.1712
lfoot -23.7799 6.2497
ltoes 2.77284
33
root 4.16448 17.1123 1.91987 -165.626 -81.8022 162.241
lowerback 30.6986 1.82558 -0.454366
upperback 9.35093 0.659899 -4.50901
thorax -6.20403 -0.097203 -4.97857
lowerneck 1.69455 0.753856 0.310241
upperneck 7.07518 0.886231 0.266008
head 1.91241 0.411184 0.0398391
rclavicle -1.51076e-014 -1.82882e-014
rhumerus -16.4471 13.9477 -100.431
rradius 46.0918
rwrist 29.7784
rhand -34.2704 11.6966
rfingers 7.12502
rthumb -7.44061 341.847
lclavicle -1.51076e-014 -1.82882e-014
lhumerus -199.554 196.824 -80.0666
lradius 50.6469
lwrist 17.3125
lhand -20.5882 9.58949
lfingers 7.12502
lthumb 5.77194 39.4909
rfemur -15.2743 -1.51454 5.08141
rtibia 37.3474
rfoot 345.654 -13.0164
rtoes -13.0118
lfemur -16.4783 -12.8632 -20.4034
ltibia 39.0286
lfoot -23.7701 6.49167
ltoes 2.83874
34
root 4.18119 17.1242 1.93765 -165.892 -81.7493 162.581
lowerback 30.9754 1.87671 -0.468307
upperback 9.43914 0.689196 -4.54167
thorax -6.22835 -0.0906381 -5.02473
lowerneck 1.83948 0.742596 0.325567
upperneck 7.26581 0.856577 0.393677
head 1.94831 0.396668 0.0765887
rclavicle -1.03368e-014 -3.89618e-014
rhumerus -15.9079 13.846 -100.431
rradius 45.6836
rwrist 30.52
rhand -35.1455 11.8827
rfingers 7.12502
rthumb -8.28517 342.065
lclavicle -1.03368e-014 -3.89618e-014
lhumerus -199.217 197.11 -80.0435
lradius 50.4231
lwrist 17.4886
lhand -20.8425 9.82518
lfingers 7.12502
lthumb 5.5264 39.7331
rfemur -15.604 -1.44931 4.99382
rtibia 37.4044
rfoot 346.29 -12.2308
rtoes -13.3735
lfemur -16.5289 -13.0338 -20.4083
ltibia 38.8851
lfoot -23.7483 6.73237
ltoes 2.86304
35
root 4.19731 17.1349 1.95281 -166.131 -81.7079 162.887
lowerback 31.2505 1.91813 -0.489651
upperback 9.5283 0.703722 -4.57383
thorax -6.25162 -0.0912495 -5.06095
lowerneck 1.97318 0.740461 0.310687
upperneck 7.46998 0.836956 0.54182
head 1.9905 0.386696 0.125075
rclavicle -5.1684e-015 4.77083e-015
rhumerus -15.3861 13.804 -100.453
rradius 45.2261
rwrist 31.0738
rhand -36.1408 12.0651
rfingers 7.12502
rthumb -9.24562 342.288
lclavicle -5.1684e-015 4.77083e-015
lhumerus -198.853 197.341 -80.0349
lradius 50.1715
lwrist 17.601
lhand -21.063 10.0371
lfingers 7.12502
lthumb 5.31357 39.9505
rfemur -15.8814 -1.30195 4.90732
rtibia 37.373
rfoot 346.821 -11.3509
rtoes -13.7594
lfemur -16.5793 -13.2063 -20.4135
ltibia 38.7625
lfoot -23.7355 6.96151
ltoes 2.95643
36
root 4.21413 17.1401 1.96612 -166.286 -81.6874 163.129
lowerback 31.5216 1.95067 -0.486705
upperback 9.60946 0.712383 -4.63003
thorax -6.28098 -0.0941046 -5.13699
lowerneck 2.0786 0.721012 0.379731
upperneck 7.67682 0.79437 0.680531
head 2.03917 0.36757 0.156499
rclavicle -1.19271e-014 -2.70347e-014
rhumerus -14.8414 13.6432 -100.526
rradius 44.7086
rwrist 31.5942
rhand -37.2546 12.2653
rfingers 7.12502
rthumb -10.3203 342.538
lclavicle -1.19271e-014 -2.70347e-014
lhumerus -198.47 197.645 -80.0593
lradius 49.87
lwrist 17.7934
lhand -21.3604 10.2348
lfingers 7.12502
lthumb 5.02639 40.1552
rfemur -16.1095 -1.1044 4.82194
rtibia 37.2363
rfoot 347.27 -10.3118
rtoes -14.0661
lfemur -16.6812 -13.4025 -20.4023
ltibia 38.6792
lfoot -23.7435 7.17617
ltoes 3.01462
37
root 4.23121 17.1422 1.97767 -166.432 -81.6876 163.354
lowerback 31.7948 1.9822 -0.469438
upperback 9.69818 0.72514 -4.67248
thorax -6.30155 -0.0949453 -5.2073
lowerneck 2.18651 0.690752 0.392866
upperneck 7.86493 0.736217 0.840075
head 2.08122 0.339905 0.203683
rclavicle 7.95139e-015 -1.11319e-014
rhumerus -14.2966 13.5399 -100.568
rradius 44.1743
rwrist 31.8245
rhand -38.4375 12.4648
rfingers 7.12502
rthumb -11.4613 342.798
lclavicle 7.95139e-015 -1.11319e-014
lhumerus -198.081 197.907 -80.0551
lradius 49.5737
lwrist 17.8971
lhand -21.5912 10.4208
lfingers 7.12502
lthumb 4.80348 40.3463
rfemur -16.2819 -0.900677 4.74709
rtibia 36.9968
rfoot 347.753 -9.13558
rtoes -14.1895
lfemur -16.8042 -13.6044 -20.3851
ltibia 38.6399
lfoot -23.7411 7.39964
ltoes 2.98109
38
root 4.24773 17.1458 1.98673 -166.458 -81.7182 163.49
lowerback 32.3425 2.0157 -0.527511
upperback 9.4187 0.724094 -4.87273
thorax -6.29555 -0.0727149 -5.0301
lowerneck 2.26673 0.662726 0.41134
upperneck 8.07722 0.67938 1.00439
head 2.13631 0.313258 0.251797
rclavicle -4.57205e-014 4.05521e-014
rhumerus -13.7734 13.4603 -100.608
rradius 43.5838
rwrist 31.9589
rhand -39.6537 12.645
rfingers 7.12502
rthumb -12.6339 343.047
lclavicle -4.57205e-014 4.05521e-014
lhumerus -197.706 198.148 -80.0372
lradius 49.2785
lwrist 18.0572
lhand -21.9024 10.5809
lfingers 7.12502
lthumb 4.50301 40.513
rfemur -16.4378 -0.62698 4.6798
rtibia 36.6575
rfoot 348.217 -7.98822
rtoes -14.4652
lfemur -16.9717 -13.8336 -20.3505
ltibia 38.6176
lfoot -23.7601 7.55931
ltoes 3.07501
39
root 4.26329 17.149 1.99379 -166.588 -81.7799 163.709
lowerback 32.6089 2.02253 -0.521476
upperback 9.49839 0.705513 -4.90452
thorax -6.31309 -0.0873812 -5.06294
lowerneck 2.30451 0.632748 0.463714
upperneck 8.28178 0.621448 1.14509
head 2.19683 0.28712 0.287051
rclavicle -1.23246e-014 -1.03368e-014
rhumerus -13.1944 13.3496 -100.68
rradius 42.9142
rwrist 31.9781
rhand -40.7234 12.7877
rfingers 7.12502
rthumb -13.6651 343.256
lclavicle -1.23246e-014 -1.03368e-014
lhumerus -197.284 198.267 -80.051
lradius 48.9501
lwrist 18.1226
lhand -22.0947 10.717
lfingers 7.12502
lthumb 4.3173 40.653
rfemur -16.5477 -0.363886 4.65094
rtibia 36.2458
rfoot 348.722 -6.83795
rtoes -14.6657
lfemur -17.1138 -14.0666 -20.2978
ltibia 38.5882
lfoot -23.7617 7.74793
ltoes 3.07698
40
root 4.27832 17.155 1.99911 -166.411 -81.8493 163.642
lowerback 32.8438 2.04538 -0.5588
upperback 9.5756 0.696575 -4.92782
thorax -6.31997 -0.0971588 -5.06632
lowerneck 2.38427 0.588579 0.47932
upperneck 8.43321 0.54532 1.29518
head 2.23265 0.251217 0.330956
rclavicle 3.37934e-014 7.95139e-015
rhumerus -12.5947 13.2805 -100.709
rradius 42.2279
rwrist 31.8315
rhand -41.5759 12.7503
rfingers 7.12502
rthumb -14.4866 343.276
lclavicle 3.37934e-014 7.95139e-015
lhumerus -196.836 198.371 -80.0228
lradius 48.5768
lwrist 18.1728
lhand -22.3289 10.8242
lfingers 7.12502
lthumb 4.09116 40.7647
rfemur -16.6617 -0.0787056 4.58937
rtibia 35.7786
rfoot 349.18 -5.73329
rtoes -14.8079
lfemur -17.2625 -14.3096 -20.2765
ltibia 38.5341
lfoot -23.752 7.94369
ltoes 3.03486
41
root 4.29295 17.1607 2.00072 -166.048 -81.9291 163.41
lowerback 33.0547 2.07632 -0.62577
upperback 9.6499 0.688278 -4.96451
thorax -6.32056 -0.1063 -5.06796
lowerneck 2.42736 0.54167 0.584391
upperneck 8.61298 0.465595 1.42311
head 2.28482 0.215969 0.353066
rclavicle 2.62396e-014 -2.70347e-014
rhumerus -11.9852 13.1506 -100.759
rradius 41.5271
rwrist 31.629
rhand -42.1136 12.5838
rfingers 7.12502
rthumb -15.0046 343.147
lclavicle 2.62396e-014 -2.70347e-014
lhumerus -196.396 198.464 -80.028
lradius 48.2253
lwrist 18.2589
lhand -22.5717 10.9687
lfingers 7.12502
lthumb 3.85671 40.9135
rfemur -16.7656 0.253882 4.52845
rtibia 35.2763
rfoot 349.548 -4.71401
rtoes -14.6601
lfemur -17.4301 -14.5618 -20.2487
ltibia 38.4665
lfoot -23.7451 8.08893
ltoes 3.09541
42
root 4.30652 17.1649 2.00083 -165.48 -82.0572 162.954
lowerback 33.2824 2.08875 -0.707935
upperback 9.73107 0.651407 -4.99222
thorax -6.32179 -0.129525 -5.04213
lowerneck 2.47355 0.494793 0.671741
upperneck 8.76782 0.385552 1.56338
head 2.32833 0.180581 0.381999
rclavicle 2.5842e-014 6.2816e-014
rhumerus -11.3513 13.0221 -100.81
rradius 40.7991
rwrist 31.3339
rhand -42.2955 12.2991
rfingers 7.12502
rthumb -15.1798 342.876
lclavicle 2.5842e-014 6.2816e-014
lhumerus -195.973 198.43 -80.0114
lradius 47.8867
lwrist 18.1852
lhand -22.7134 11.0951
lfingers 7.12502
lthumb 3.71991 41.0424
rfemur -16.7964 0.546288 4.46143
rtibia 34.7519
rfoot 349.835 -3.73783
rtoes -14.3022
lfemur -17.5747 -14.8154 -20.2458
ltibia 38.3903
lfoot -23.701 8.20629
ltoes 3.12094
43
root 4.31907 17.169 1.99698 -164.656 -82.2079 162.27
lowerback 33.4795 2.10174 -0.842255
upperback 9.79609 0.603324 -5.00671
thorax -6.3294 -0.157633 -4.9702
lowerneck 2.53926 0.45147 0.728701
upperneck 8.8804 0.311653 1.7044
head 2.35447 0.147437 0.416206
rclavicle 3.02153e-014 -2.22639e-014
rhumerus -10.7822 12.9756 -100.83
rradius 40.1049
rwrist 30.8711
rhand -42.0913 11.8313
rfingers 7.12502
rthumb -14.9832 342.393
lclavicle 3.02153e-014 -2.22639e-014
lhumerus -195.534 198.308 -79.9741
lradius 47.4934
lwrist 18.1676
lhand -22.8935 11.1169
lfingers 7.12502
lthumb 3.54595 41.0672
rfemur -16.7972 0.893023 4.38437
rtibia 34.2194
rfoot 349.954 -2.88271
rtoes -13.8403
lfemur -17.758 -15.0966 -20.2423
ltibia 38.3164
lfoot -23.6306 8.34893
ltoes 3.06446
